<svg width="23" height="29" viewBox="0 0 23 29" fill="none" xmlns="http://www.w3.org/2000/svg">
<path d="M19.1899 15.7623C19.1579 12.217 22.0971 10.4922 22.2315 10.4119C20.5669 7.98862 17.9869 7.65752 17.0803 7.63112C14.9134 7.40342 12.8115 8.92582 11.7076 8.92582C10.5818 8.92582 8.88194 7.65312 7.04993 7.69052C4.69244 7.72682 2.48698 9.08972 1.27739 11.2061C-1.2189 15.5214 0.642854 21.8629 3.03449 25.351C4.23086 27.0604 5.62883 28.9667 7.45863 28.8996C9.24878 28.827 9.91747 27.7611 12.0778 27.7611C14.2182 27.7611 14.8462 28.8996 16.7123 28.8567C18.6336 28.827 19.8431 27.1407 20.9977 25.417C22.3802 23.4601 22.9354 21.5307 22.9575 21.4317C22.9134 21.4163 19.2273 20.0105 19.1899 15.7623Z" fill="white"/>
<path d="M15.6647 5.33677C16.6275 4.13447 17.2863 2.49877 17.1034 0.838867C15.7098 0.900467 13.9671 1.80137 12.9635 2.97727C12.0756 4.01347 11.2824 5.71187 11.4873 7.30907C13.0527 7.42567 14.66 6.52037 15.6647 5.33677Z" fill="white"/>
</svg>
