<svg width="149" height="44" viewBox="0 0 149 44" fill="none" xmlns="http://www.w3.org/2000/svg">
<g clip-path="url(#clip0_139_22)">
<path d="M147.654 38.7948C147.654 41.1224 145.765 43.0078 143.43 43.0078H5.20961C2.87526 43.0078 0.980453 41.1224 0.980453 38.7948V5.1975C0.980453 2.871 2.87526 0.979004 5.20961 0.979004H143.429C145.765 0.979004 147.653 2.871 147.653 5.1975L147.654 38.7948Z" fill="white"/>
<path d="M143.43 43.9879H5.2096C2.33766 43.9879 0 41.6592 0 38.7948V5.1986C0 2.332 2.33766 0 5.2096 0H143.429C146.297 0 148.638 2.332 148.638 5.1986V38.7948C148.641 41.6592 146.3 43.9879 143.43 43.9879Z" fill="#A6A6A6"/>
<path d="M147.654 38.7948C147.654 41.1224 145.765 43.0078 143.43 43.0078H5.20961C2.87526 43.0078 0.980453 41.1224 0.980453 38.7948V5.1975C0.980453 2.871 2.87526 0.979004 5.20961 0.979004H143.429C145.765 0.979004 147.653 2.871 147.653 5.1975L147.654 38.7948Z" fill="black"/>
<path d="M33.1899 21.7623C33.1579 18.217 36.0971 16.4922 36.2315 16.4119C34.5669 13.9886 31.9869 13.6575 31.0803 13.6311C28.9134 13.4034 26.8115 14.9258 25.7076 14.9258C24.5818 14.9258 22.8819 13.6531 21.0499 13.6905C18.6924 13.7268 16.487 15.0897 15.2774 17.2061C12.7811 21.5214 14.6429 27.8629 17.0345 31.351C18.2309 33.0604 19.6288 34.9667 21.4586 34.8996C23.2488 34.827 23.9175 33.7611 26.0778 33.7611C28.2182 33.7611 28.8462 34.8996 30.7123 34.8567C32.6336 34.827 33.8431 33.1407 34.9977 31.417C36.3802 29.4601 36.9354 27.5307 36.9575 27.4317C36.9134 27.4163 33.2273 26.0105 33.1899 21.7623Z" fill="white"/>
<path d="M29.6647 11.3368C30.6275 10.1345 31.2863 8.49877 31.1034 6.83887C29.7098 6.90047 27.9671 7.80137 26.9635 8.97727C26.0756 10.0135 25.2824 11.7119 25.4873 13.3091C27.0527 13.4257 28.66 12.5204 29.6647 11.3368Z" fill="white"/>
<path d="M143.43 0H69.3949L98.3931 43.9879H143.43C146.299 43.9879 148.64 41.6592 148.64 38.7915V5.1986C148.641 2.332 146.3 0 143.43 0Z" fill="url(#paint0_linear_139_22)"/>
<path d="M59.1189 34.6544H56.6171L55.2467 30.3545H50.4833L49.1778 34.6544H46.7421L51.4626 20.0156H54.3775L59.1189 34.6544ZM54.8336 28.5505L53.5943 24.728C53.4632 24.3375 53.2164 23.4179 52.8551 21.9703H52.811C52.6656 22.5929 52.4332 23.5125 52.1148 24.728L50.8964 28.5505H54.8336Z" fill="white"/>
<path d="M71.2347 29.2467C71.2347 31.0419 70.7466 32.4609 69.7695 33.5026C68.8948 34.4299 67.8075 34.893 66.5109 34.893C65.1107 34.893 64.1038 34.3947 63.4924 33.3959V38.9344H61.1437V27.5681C61.1437 26.4406 61.114 25.2845 61.0567 24.0987H63.1223L63.2534 25.7718H63.2974C64.0807 24.5112 65.2693 23.8809 66.8645 23.8809C68.1116 23.8809 69.1526 24.3726 69.9854 25.3571C70.8172 26.3438 71.2347 27.6396 71.2347 29.2467ZM68.8419 29.3325C68.8419 28.3051 68.6106 27.4581 68.1457 26.7904C67.6379 26.0963 66.9559 25.7487 66.1011 25.7487C65.5216 25.7487 64.995 25.9423 64.5246 26.324C64.0531 26.709 63.7447 27.2117 63.6004 27.8343C63.5277 28.1247 63.4913 28.3612 63.4913 28.5482V30.3093C63.4913 31.076 63.7271 31.7239 64.1986 32.2541C64.6701 32.7821 65.2826 33.0472 66.0361 33.0472C66.9207 33.0472 67.6092 32.7051 68.1016 32.0264C68.5952 31.3455 68.8419 30.4479 68.8419 29.3325Z" fill="white"/>
<path d="M83.3933 29.2467C83.3933 31.0419 82.9053 32.4609 81.9282 33.5026C81.0524 34.4299 79.9662 34.893 78.6685 34.893C77.2683 34.893 76.2614 34.3947 75.65 33.3959V38.9344H73.3013V27.5681C73.3013 26.4406 73.2716 25.2845 73.2143 24.0987H75.2798L75.4109 25.7718H75.455C76.2372 24.5112 77.4258 23.8809 79.0221 23.8809C80.268 23.8809 81.3091 24.3726 82.1441 25.3571C82.9747 26.3438 83.3933 27.6396 83.3933 29.2467ZM80.9995 29.3325C80.9995 28.3051 80.7671 27.4581 80.3022 26.7904C79.7943 26.0963 79.1146 25.7487 78.2598 25.7487C77.6803 25.7487 77.1537 25.9423 76.6811 26.324C76.2096 26.709 75.9023 27.2117 75.758 27.8343C75.6863 28.1247 75.6478 28.3612 75.6478 28.5482V30.3093C75.6478 31.076 75.8846 31.7239 76.3539 32.2541C76.8254 32.781 77.4379 33.0472 78.1937 33.0472C79.0794 33.0472 79.7679 32.7051 80.2592 32.0264C80.7527 31.3455 80.9995 30.4479 80.9995 29.3325Z" fill="white"/>
<path d="M96.9875 30.548C96.9875 31.7943 96.5512 32.8074 95.6842 33.5895C94.7302 34.4431 93.3983 34.871 91.6908 34.871C90.1133 34.871 88.8486 34.5674 87.8946 33.9591L88.4377 32.0044C89.4677 32.6138 90.5991 32.9174 91.8307 32.9174C92.7164 32.9174 93.405 32.7172 93.8963 32.3201C94.3887 31.9219 94.6377 31.3895 94.6377 30.7251C94.6377 30.13 94.4317 29.6317 94.0274 29.2258C93.6209 28.821 92.9489 28.4437 92.0048 28.0972C89.438 27.1413 88.1535 25.7432 88.1535 23.904C88.1535 22.7028 88.6074 21.7194 89.5129 20.9505C90.4184 20.1827 91.6192 19.7988 93.113 19.7988C94.4471 19.7988 95.5586 20.0309 96.441 20.494L95.8517 22.4058C95.021 21.957 94.0836 21.7326 93.0348 21.7326C92.2064 21.7326 91.5564 21.9361 91.0915 22.3409C90.7005 22.7028 90.5022 23.1439 90.5022 23.6675C90.5022 24.245 90.728 24.7246 91.1775 25.1008C91.5674 25.4473 92.2791 25.8246 93.308 26.2294C94.5705 26.7376 95.498 27.3294 96.0918 28.0092C96.69 28.689 96.9875 29.5371 96.9875 30.548Z" fill="white"/>
<path d="M104.773 25.8586H102.184V30.9835C102.184 32.287 102.64 32.9371 103.554 32.9371C103.974 32.9371 104.322 32.9019 104.598 32.8282L104.663 34.6091C104.2 34.7818 103.591 34.8687 102.836 34.8687C101.908 34.8687 101.184 34.586 100.66 34.0206C100.139 33.4552 99.877 32.5081 99.877 31.1749V25.8542H98.3347V24.0942H99.877V22.1615L102.184 21.4663V24.0942H104.773V25.8586Z" fill="white"/>
<path d="M116.43 29.2897C116.43 30.9122 115.965 32.2443 115.038 33.286C114.067 34.3585 112.776 34.8931 111.167 34.8931C109.613 34.8931 108.378 34.3794 107.457 33.3531C106.536 32.3246 106.076 31.0288 106.076 29.4657C106.076 27.83 106.552 26.4902 107.5 25.4485C108.451 24.4057 109.731 23.8843 111.341 23.8843C112.892 23.8843 114.138 24.3991 115.081 25.4265C115.982 26.4231 116.43 27.7101 116.43 29.2897ZM113.996 29.3436C113.996 28.3767 113.786 27.5473 113.366 26.8532C112.874 26.015 112.169 25.5959 111.256 25.5959C110.315 25.5959 109.593 26.015 109.102 26.8532C108.681 27.5473 108.472 28.391 108.472 29.3876C108.472 30.3556 108.681 31.1872 109.102 31.8791C109.61 32.7173 110.318 33.1364 111.236 33.1364C112.134 33.1364 112.838 32.7085 113.347 31.8582C113.778 31.1476 113.996 30.3127 113.996 29.3436Z" fill="white"/>
<path d="M124.068 26.1612C123.835 26.1183 123.586 26.0963 123.327 26.0963C122.501 26.0963 121.862 26.4065 121.413 27.0313C121.023 27.5813 120.827 28.2765 120.827 29.1158V34.6543H118.478V27.4229C118.478 26.2074 118.455 25.0986 118.41 24.0998H120.455L120.541 26.1194H120.606C120.855 25.4253 121.245 24.8654 121.781 24.4463C122.304 24.069 122.869 23.8809 123.478 23.8809C123.695 23.8809 123.891 23.8963 124.066 23.9238L124.068 26.1612Z" fill="white"/>
<path d="M134.572 28.877C134.572 29.2972 134.544 29.6514 134.486 29.9407H127.44C127.466 30.9835 127.808 31.7821 128.462 32.3321C129.056 32.8227 129.824 33.0691 130.767 33.0691C131.81 33.0691 132.762 32.9041 133.618 32.5708L133.986 34.1977C132.985 34.6333 131.804 34.85 130.442 34.85C128.802 34.85 127.516 34.3682 126.579 33.4068C125.645 32.4443 125.177 31.1507 125.177 29.5304C125.177 27.9398 125.612 26.6143 126.484 25.5572C127.396 24.4286 128.628 23.8643 130.18 23.8643C131.703 23.8643 132.856 24.4286 133.64 25.5572C134.26 26.4515 134.572 27.5603 134.572 28.877ZM132.332 28.2687C132.349 27.5724 132.194 26.9729 131.876 26.4658C131.47 25.8124 130.844 25.4868 130.005 25.4868C129.238 25.4868 128.612 25.8047 128.136 26.4427C127.745 26.9498 127.512 27.5592 127.441 28.2665L132.332 28.2687Z" fill="white"/>
<path d="M53.7011 14.7766H52.4706L51.7975 12.6635H49.4565L48.8143 14.7766H47.6168L49.9369 7.58154H51.369L53.7011 14.7766ZM51.5948 11.7769L50.9856 9.89814C50.9217 9.70564 50.8038 9.25794 50.6221 8.54294H50.6C50.5251 8.85204 50.4183 9.30084 50.2574 9.89814L49.6592 11.7769H51.5948Z" fill="white"/>
<path d="M59.5023 9.58887L57.5348 14.7765H56.4122L54.5086 9.58887H55.7491L56.637 12.3323C56.7868 12.791 56.9146 13.2288 57.0104 13.6446H57.0424C57.1283 13.2717 57.2561 12.8339 57.4158 12.3323L58.2927 9.58887H59.5023Z" fill="white"/>
<path d="M63.6907 14.7767L63.6048 14.1794H63.5728C63.2203 14.6601 62.7069 14.8944 62.0548 14.8944C61.125 14.8944 60.4618 14.2432 60.4618 13.3676C60.4618 12.0872 61.5734 11.425 63.4979 11.425V11.3293C63.4979 10.6462 63.1344 10.3041 62.4183 10.3041C61.905 10.3041 61.4555 10.4328 61.0611 10.6891L60.8265 9.93122C61.3079 9.63202 61.9061 9.48242 62.6122 9.48242C63.9694 9.48242 64.6546 10.1974 64.6546 11.6285V13.5392C64.6546 14.0628 64.6767 14.4687 64.7295 14.7778L63.6907 14.7767ZM63.5299 12.1928C62.2465 12.1928 61.6053 12.503 61.6053 13.2389C61.6053 13.7834 61.9369 14.0496 62.3963 14.0496C62.9846 14.0496 63.5299 13.6019 63.5299 12.9936V12.1928Z" fill="white"/>
<path d="M67.2258 8.73413C66.8414 8.73413 66.5417 8.43493 66.5417 8.04003C66.5417 7.64513 66.8513 7.35693 67.2479 7.35693C67.6433 7.35693 67.9639 7.64513 67.9529 8.04003C67.9529 8.45693 67.6544 8.73413 67.2258 8.73413ZM67.8251 14.7764H66.6706V9.58883H67.8251V14.7764Z" fill="white"/>
<path d="M71.0308 14.7765H69.8763V7.2085H71.0308V14.7765Z" fill="white"/>
<path d="M75.9375 14.7764L75.8516 14.1791H75.8196C75.4671 14.6598 74.9538 14.8941 74.3016 14.8941C73.3718 14.8941 72.7086 14.2429 72.7086 13.3673C72.7086 12.0869 73.8202 11.4247 75.7447 11.4247V11.329C75.7447 10.6459 75.3812 10.3038 74.6651 10.3038C74.1518 10.3038 73.7023 10.4325 73.3079 10.6888L73.0722 9.92976C73.5536 9.63056 74.1518 9.48096 74.8579 9.48096C76.2151 9.48096 76.9004 10.196 76.9004 11.6271V13.5378C76.9004 14.0614 76.9235 14.4673 76.9742 14.7764H75.9375ZM75.7767 12.1925C74.4933 12.1925 73.8521 12.5027 73.8521 13.2386C73.8521 13.7831 74.1837 14.0493 74.6431 14.0493C75.2314 14.0493 75.7767 13.6016 75.7767 12.9933V12.1925Z" fill="white"/>
<path d="M81.5779 14.8942C80.8409 14.8942 80.2967 14.584 79.9441 13.9757H79.921L79.8549 14.7765H78.8712C78.9031 14.3607 78.9141 13.8899 78.9141 13.3784V7.2085H80.0697V10.3479H80.0918C80.4344 9.7715 80.9885 9.4833 81.7486 9.4833C83.0001 9.4833 83.877 10.5514 83.877 12.109C83.877 13.7194 82.9031 14.8942 81.5779 14.8942ZM81.3432 10.3886C80.6789 10.3886 80.0708 10.965 80.0708 11.7658V12.6733C80.0708 13.3883 80.6172 13.9757 81.3234 13.9757C82.1882 13.9757 82.7026 13.2717 82.7026 12.1508C82.7015 11.1047 82.1661 10.3886 81.3432 10.3886Z" fill="white"/>
<path d="M86.7379 14.7765H85.5845V7.2085H86.7379V14.7765Z" fill="white"/>
<path d="M93.0227 12.4599H89.557C89.5801 13.4422 90.2301 13.9966 91.1929 13.9966C91.7062 13.9966 92.1766 13.9108 92.5931 13.7513L92.7726 14.5521C92.2813 14.7655 91.7041 14.8722 91.031 14.8722C89.405 14.8722 88.4432 13.847 88.4432 12.2575C88.4432 10.6669 89.4281 9.47119 90.901 9.47119C92.2262 9.47119 93.0613 10.4535 93.0613 11.9374C93.0657 12.1398 93.0557 12.3213 93.0227 12.4599ZM91.964 11.6382C91.964 10.8374 91.5575 10.272 90.8194 10.272C90.1563 10.272 89.6341 10.8484 89.557 11.6382H91.964Z" fill="white"/>
<path d="M100.02 14.8944C98.5022 14.8944 97.5184 13.7625 97.5184 12.2258C97.5184 10.6242 98.5231 9.48242 100.107 9.48242C101.602 9.48242 102.609 10.5604 102.609 12.1411C102.609 13.7625 101.571 14.8944 100.02 14.8944ZM100.064 10.325C99.2304 10.325 98.6961 11.1038 98.6961 12.1928C98.6961 13.2609 99.2414 14.0397 100.053 14.0397C100.865 14.0397 101.409 13.207 101.409 12.1708C101.41 11.1148 100.876 10.325 100.064 10.325Z" fill="white"/>
<path d="M108.816 14.7764H107.662V11.7976C107.662 10.8802 107.31 10.4204 106.615 10.4204C105.93 10.4204 105.459 11.0078 105.459 11.6909V14.7764H104.306V11.0716C104.306 10.6129 104.293 10.1212 104.263 9.58766H105.278L105.332 10.3885H105.364C105.673 9.83406 106.305 9.48096 107.01 9.48096C108.1 9.48096 108.816 10.3137 108.816 11.6689V14.7764Z" fill="white"/>
<path d="M116.37 10.4535H115.099V12.9725C115.099 13.6138 115.323 13.9339 115.771 13.9339C115.975 13.9339 116.147 13.9119 116.285 13.88L116.317 14.7556C116.092 14.8414 115.791 14.8843 115.42 14.8843C114.51 14.8843 113.967 14.3827 113.967 13.0693V10.4535H113.209V9.58889H113.967V8.63849L115.099 8.29639V9.58779H116.37V10.4535Z" fill="white"/>
<path d="M122.484 14.7765H121.328V11.8197C121.328 10.8913 120.975 10.4216 120.28 10.4216C119.682 10.4216 119.127 10.8275 119.127 11.6492V14.7765H117.971V7.2085H119.127V10.3248H119.149C119.512 9.7594 120.037 9.4811 120.71 9.4811C121.81 9.4811 122.484 10.3347 122.484 11.691V14.7765Z" fill="white"/>
<path d="M128.383 12.4599H124.918C124.94 13.4422 125.59 13.9966 126.553 13.9966C127.067 13.9966 127.537 13.9108 127.953 13.7513L128.134 14.5521C127.642 14.7655 127.064 14.8722 126.391 14.8722C124.765 14.8722 123.803 13.847 123.803 12.2575C123.803 10.6669 124.788 9.47119 126.261 9.47119C127.586 9.47119 128.421 10.4535 128.421 11.9374C128.426 12.1398 128.415 12.3213 128.383 12.4599ZM127.324 11.6382C127.324 10.8374 126.919 10.272 126.181 10.272C125.516 10.272 124.994 10.8484 124.918 11.6382H127.324Z" fill="white"/>
</g>
<defs>
<linearGradient id="paint0_linear_139_22" x1="109.018" y1="44.1069" x2="109.018" y2="4.45643" gradientUnits="userSpaceOnUse">
<stop stop-color="#1A1A1A" stop-opacity="0.1"/>
<stop offset="0.1235" stop-color="#212121" stop-opacity="0.1506"/>
<stop offset="0.3085" stop-color="#353535" stop-opacity="0.2265"/>
<stop offset="0.5321" stop-color="#575757" stop-opacity="0.3181"/>
<stop offset="0.7834" stop-color="#858585" stop-opacity="0.4212"/>
<stop offset="1" stop-color="#B3B3B3" stop-opacity="0.51"/>
</linearGradient>
<clipPath id="clip0_139_22">
<rect width="148.72" height="44" fill="white"/>
</clipPath>
</defs>
</svg>
