<svg width="18" height="18" viewBox="0 0 18 18" fill="none" xmlns="http://www.w3.org/2000/svg">
<g clip-path="url(#clip0_102_256)">
<path d="M15.459 16.5671C13.9443 16.6789 12.4094 16.3277 11.1831 15.9157C9.94902 15.5011 8.98148 15.009 8.5906 14.8018L8.57388 14.7926L8.40889 14.6989L8.72999 14.1337L8.40532 14.6968C6.28071 13.4718 4.51689 11.708 3.29189 9.58341C3.28733 9.5755 3.28293 9.5675 3.27871 9.5594L3.23371 9.47315C3.21713 9.44138 3.20326 9.40839 3.19219 9.37454C2.98606 8.99145 2.52987 8.09174 2.13164 6.94044C1.70104 5.69557 1.32085 4.10775 1.4329 2.54112L1.43342 2.53378L1.43346 2.53379C1.45704 2.24933 1.58022 1.98231 1.78132 1.77974C1.98241 1.57717 2.24852 1.45203 2.5328 1.42637C2.55223 1.42461 2.57173 1.42374 2.59124 1.42374H5.74335M15.459 16.5671C15.4585 16.5671 15.458 16.5671 15.4575 16.5672L15.4125 15.9187L15.4605 16.567C15.46 16.567 15.4595 16.567 15.459 16.5671ZM15.459 16.5671C15.7457 16.5468 16.016 16.4253 16.2215 16.2243C16.4274 16.0228 16.5549 15.7547 16.581 15.4678C16.5828 15.4482 16.5837 15.4285 16.5837 15.4087V12.2604M16.5837 12.2604C16.6031 12.0913 16.5915 11.9199 16.5493 11.7547C16.5023 11.5705 16.4183 11.3978 16.3023 11.2472C16.1864 11.0965 16.041 10.9711 15.875 10.8785C15.7112 10.7871 15.5307 10.7295 15.3443 10.7092M16.5837 12.2604C16.5815 12.2798 16.5789 12.2991 16.5759 12.3184L15.9337 12.2175M16.5837 12.2604V12.2175H15.9337M15.3443 10.7092C14.5833 10.6151 13.8276 10.4824 13.0802 10.3115M15.3443 10.7092C15.3418 10.709 15.3393 10.7087 15.3369 10.7084L15.27 11.355M15.3443 10.7092C15.3461 10.7094 15.3478 10.7097 15.3496 10.7099L15.27 11.355M13.0802 10.3115C12.7933 10.2217 12.4885 10.2045 12.1931 10.2616C11.8861 10.321 11.5997 10.4585 11.3615 10.661C11.3466 10.6736 11.3323 10.687 11.3186 10.7009C11.162 10.8605 10.7596 11.2586 10.2948 11.7157C8.60712 10.7891 7.21891 9.39943 6.29404 7.71075M13.0802 10.3115C13.0913 10.3149 13.1024 10.3185 13.1135 10.3223L12.9075 10.9387M13.0802 10.3115C13.0712 10.3094 13.0622 10.3073 13.0532 10.3053L12.9075 10.9387M6.29404 7.71075C6.33031 7.67338 6.36605 7.63654 6.40118 7.60032C6.80679 7.1822 7.13243 6.84652 7.28187 6.71229C7.30354 6.69281 7.32388 6.67191 7.34275 6.64971C7.54522 6.41152 7.68277 6.1251 7.74211 5.81817C7.79923 5.52273 7.78202 5.21792 7.69227 4.93109M6.29404 7.71075C6.18893 7.81907 6.0793 7.93194 5.96668 8.04746L5.50124 7.59374L6.08479 7.30743C6.15163 7.44366 6.22141 7.57813 6.29404 7.71075ZM7.69227 4.93109C7.52115 4.18246 7.38839 3.42557 7.29453 2.66339M7.69227 4.93109C7.69433 4.9401 7.6964 4.94911 7.69847 4.95811L7.06499 5.10374L7.68147 4.8977C7.68518 4.9088 7.68878 4.91993 7.69227 4.93109ZM7.29453 2.66339C7.27426 2.47688 7.21671 2.29632 7.12527 2.13245C7.03264 1.96646 6.90719 1.82107 6.75655 1.70514C6.60591 1.58922 6.43324 1.50518 6.24906 1.45815C6.08383 1.41597 5.91245 1.40436 5.74335 1.42374M7.29453 2.66339C7.29479 2.6658 7.29504 2.66821 7.29529 2.67062L6.64874 2.73749L7.29389 2.65819C7.2941 2.65992 7.29431 2.66165 7.29453 2.66339ZM5.74335 1.42374H5.78624V2.07374L5.68529 1.43162C5.70461 1.42859 5.72397 1.42596 5.74335 1.42374ZM12.9075 10.9387C13.6873 11.118 14.4759 11.257 15.27 11.355M12.9075 10.9387C12.7171 10.8751 12.5135 10.8617 12.3164 10.8998C12.1194 10.9379 11.9354 11.0262 11.7825 11.1562C11.5837 11.3587 11.01 11.925 10.4137 12.51L15.27 11.355M15.27 11.355C15.3713 11.3655 15.4694 11.3965 15.5583 11.4461C15.6472 11.4957 15.7251 11.5629 15.7872 11.6436C15.8493 11.7243 15.8943 11.8168 15.9195 11.9155C15.9447 12.0141 15.9496 12.1169 15.9337 12.2175M15.27 11.355L15.9337 15.4087V12.2175" stroke="#353535" stroke-width="1.3" stroke-linecap="round" stroke-linejoin="round"/>
</g>
<defs>
<clipPath id="clip0_102_256">
<rect width="18" height="18" fill="white"/>
</clipPath>
</defs>
</svg>
