<svg width="142" height="142" viewBox="0 0 142 142" fill="none" xmlns="http://www.w3.org/2000/svg">
<g clip-path="url(#clip0_102_190)">
<path d="M103.305 32.6599C120.487 47.9959 140.438 67.5493 140.552 88.7783C140.765 109.723 121.538 132.315 99.9396 138.649C99.6698 138.734 96.5742 137.484 96.2902 137.555C93.5922 138.294 93.6348 138.649 90.9652 140.353C76.6232 141.702 61.7274 136.831 48.493 129.646C46.5192 125.641 43.4662 124.747 40.257 124.747C40.0582 124.633 39.831 124.52 39.6322 124.378C37.9282 123.27 36.2668 122.148 34.6622 120.998C16.4862 108.104 4.1322 93.2229 2.9252 78.5401C1.8176 63.8999 11.8428 49.4443 22.7626 35.4573C33.654 21.5555 45.44 8.22168 58.575 7.09988C71.6816 6.10588 86.123 17.2103 103.305 32.6599Z" fill="#0CA49B"/>
<path d="M75.189 0C73.7566 0.0538805 72.3642 0.48719 71.1542 1.25563C69.9441 2.02406 68.9599 3.10006 68.302 4.3736C67.4784 6.1486 67.734 9.4856 68.0606 11.4168C70.9148 28.5562 72.8602 26.554 75.7286 43.6934C76.112 46.0648 77.461 70.6734 80.1306 74.2518C82.786 77.8302 87.8696 78.4124 92.371 78.7106L103.106 79.3922C107.167 79.6478 111.995 79.2218 115.957 78.2846C119.905 77.3332 124.406 74.3086 126.082 70.6592C127.189 68.2452 127.956 65.4904 128.07 62.835C129.873 47.6552 130.569 36.281 135.894 22.5922C137.158 19.3688 140.509 14.8106 140.58 11.3742C140.637 8.3496 139.231 6.0066 137.484 5.1546C135.283 4.0896 128.538 4.3026 129.774 9.0312C130.967 13.5752 137.484 9.0312 135.283 14.4272C126.707 31.5524 125.556 45.9228 123.625 64.7378C123.242 67.6062 122.532 69.4806 120.501 71.5538C118.314 73.7974 114.537 73.9678 111.385 74.2518C105.137 74.763 100.451 74.2518 94.2454 74.2518C91.519 74.2518 89.7866 74.1666 87.3868 73.2578C82.644 71.497 83.2688 66.4702 82.573 62.0398C81.8914 57.6378 82.4736 55.2522 81.2098 46.4198C79.4916 34.506 77.4326 29.4082 73.9962 16.1454C73.4282 13.9586 72.5194 8.8466 73.13 7.9094C73.7264 6.9722 75.4162 5.2398 77.8444 8.3354C80.2726 11.4168 82.9422 7.6538 82.2464 4.7996C81.5364 1.9596 78.6396 0 75.189 0V0Z" fill="#1C1C1C"/>
<path d="M99.2012 138.876C100.134 130.189 101.161 121.512 102.283 112.847C102.95 108.232 105.265 88.7784 105.265 86.1514C105.265 84.277 99.2864 84.8308 98.619 87.1454C98.122 90.6954 97.2274 96.5316 96.489 101.345C95.8926 105.137 95.4098 108.289 95.2962 109.212C94.9554 111.853 93.6348 123.384 93.3082 127.019C93.2088 128.027 93.1378 129.149 93.0668 130.328C92.9779 133.426 92.612 136.51 91.9734 139.543L91.8456 140.012L91.7746 140.282C94.2841 140.007 96.7675 139.533 99.2012 138.862V138.876ZM47.783 129.263C45.4707 127.993 43.1976 126.652 40.967 125.244C41.3504 117.917 41.8758 110.206 42.387 106.244C43.1964 100.181 43.3952 87.685 43.3952 82.1896C45.3832 81.5364 49.5154 80.6134 50.055 82.1896C50.7224 84.1776 49.3876 110.874 48.7202 116.795C48.5356 118.4 48.067 123.469 47.783 129.263V129.263Z" fill="#F6DE05"/>
<path d="M99.9964 138.635C101.005 129.49 102.439 117.136 103.035 112.947C103.376 110.632 104.114 104.611 104.782 98.8321C105.449 93.0953 106.046 87.5147 106.046 86.1515C106.046 85.1575 105.222 84.6747 104.555 84.4617C102.877 84.0849 101.121 84.3007 99.5846 85.0723C98.8462 85.4699 98.1362 86.0663 97.8806 86.9183V86.9751L97.8664 87.0319C97.3694 90.5677 96.4748 96.4039 95.7364 101.232C95.14 105.023 94.6572 108.19 94.5294 109.127C94.2028 111.768 92.868 123.313 92.5414 126.948C92.442 127.956 92.371 129.106 92.3 130.299L92.1154 133.097C91.9909 135.201 91.6916 137.29 91.2208 139.345L91.1072 139.813L90.9652 140.353C91.519 140.31 92.0586 140.253 92.5982 140.182L92.655 139.941L92.7118 139.728C93.223 137.683 93.4786 135.411 93.649 133.21L93.8336 130.342L94.0608 127.076C94.3874 123.469 95.7222 111.939 96.0488 109.312C96.1766 108.374 96.6594 105.236 97.2416 101.473C97.9658 96.7021 98.8604 90.9085 99.3716 87.3017C99.471 87.0177 99.755 86.7053 100.295 86.4071C101.472 85.8225 102.812 85.6476 104.1 85.9101C104.313 85.9811 104.427 86.0521 104.484 86.0947L104.512 86.1373C104.512 87.4153 103.944 92.8681 103.262 98.6617C102.595 104.427 101.842 110.448 101.516 112.734C100.388 121.503 99.3559 130.284 98.4202 139.075C98.9481 138.942 99.4736 138.8 99.9964 138.649V138.635ZM41.7196 125.713L40.2428 124.761C40.612 117.562 41.1232 110.05 41.6344 106.159C42.4296 100.138 42.6284 87.6993 42.6284 82.1897V81.6501L43.1538 81.4655C44.1904 81.1247 45.7808 80.7129 47.2008 80.5993C47.9108 80.5283 48.635 80.5425 49.2598 80.6987C49.8704 80.8407 50.5378 81.2099 50.7792 81.9483C50.8502 82.1755 50.8928 82.4737 50.9212 82.7719L50.978 83.9789C51.0064 84.9303 51.0064 86.1657 50.978 87.6141C50.9354 90.4967 50.8076 94.2029 50.6514 98.0369C50.3106 105.705 49.8136 113.884 49.4728 116.88C49.3024 118.513 48.8054 123.767 48.5214 129.66L47.0304 128.851C47.3144 123.199 47.783 118.286 47.9534 116.71C48.2942 113.77 48.7912 105.634 49.1178 97.9659C49.2882 94.1461 49.4018 90.4399 49.4444 87.5999C49.4666 86.0377 49.4477 84.4751 49.3876 82.9139C49.3715 82.7519 49.3478 82.5908 49.3166 82.4311C49.3166 82.3885 49.2456 82.2607 48.8764 82.1613C48.3714 82.0619 47.8538 82.0427 47.3428 82.1045C46.2778 82.1897 45.085 82.4737 44.162 82.7435C44.1478 88.4803 43.9348 100.422 43.168 106.344C42.6284 110.362 42.103 118.272 41.7196 125.713V125.713Z" fill="#1C1C1C"/>
<path d="M43.1112 76.6657C43.1822 78.6395 43.1396 80.7553 43.3952 82.7149C43.4378 82.9847 43.4946 83.6379 43.807 83.8083C44.1194 83.9787 44.4886 84.1491 46.5476 84.1491C48.6066 84.1491 49.2882 83.8083 49.984 83.4391C49.984 81.4227 49.9982 77.9437 49.7426 76.0977C47.5558 75.5013 45.9086 76.5095 43.1112 76.6657Z" fill="#F6F6F1"/>
<path fill-rule="evenodd" clip-rule="evenodd" d="M46.5192 75.3594C47.6438 75.0882 48.8168 75.0882 49.9414 75.3594C50.2254 75.4446 50.4526 75.686 50.5094 75.9984C50.7508 77.7734 50.7508 80.9968 50.7508 83.0274V83.4392C50.7508 83.7232 50.5946 83.9788 50.339 84.1066C49.984 84.2912 49.5722 84.5042 48.9758 84.6746C48.3794 84.8166 47.6126 84.9018 46.5618 84.9018C45.511 84.9018 44.8578 84.8592 44.4034 84.7882C44.0652 84.7438 43.7379 84.638 43.4378 84.4758C43.2265 84.3566 43.054 84.1792 42.9408 83.9646C42.8556 83.7942 42.7988 83.6238 42.7562 83.4818L42.6426 82.8428V82.8144C42.4438 81.295 42.4154 79.662 42.387 78.1284L42.3586 76.6942C42.3444 76.2682 42.6568 75.9274 43.0686 75.9132C44.091 75.8564 44.9288 75.6718 45.7666 75.5014L46.5192 75.3594V75.3594ZM43.9064 77.3616V78.171C43.949 79.6904 43.9774 81.1956 44.162 82.6156V82.6724L44.2472 83.0984L44.2614 83.1836C44.3466 83.2262 44.446 83.2546 44.6448 83.2972C44.9714 83.3398 45.5252 83.3824 46.5476 83.3824C47.5416 83.3824 48.1522 83.3114 48.5924 83.1978C48.8338 83.1268 49.0184 83.0558 49.2172 82.9706C49.2172 81.1104 49.2172 78.4266 49.0468 76.7226C48.3084 76.609 47.6268 76.6942 46.8032 76.8504L46.1358 76.9924C45.4684 77.1202 44.73 77.2764 43.9064 77.3616V77.3616Z" fill="#1C1C1C"/>
<path d="M95.708 73.5985C102.197 74.5357 106.883 73.4849 112.691 73.5985C112.975 73.5985 113.316 73.6127 113.543 73.8115C113.742 73.9961 114.026 74.4789 114.154 75.1605C114.381 76.4101 114.409 76.4243 114.154 77.6739C114.097 77.9437 113.657 78.9093 113.444 79.0939C113.217 79.2501 112.933 79.2785 112.649 79.3069L105.79 79.7329C105.577 81.7493 105.364 85.4697 105.165 87.4719C104.966 89.4599 98.2214 90.0137 98.548 87.4293C98.8746 84.8733 98.8462 81.8771 99.116 79.8181C96.9576 79.9175 96.1624 79.7897 94.0466 79.4489C93.6206 79.3921 93.152 79.2927 92.8254 78.9945C92.4278 78.6253 92.3284 78.0573 92.2574 77.5177C92.1154 76.5379 92.0018 75.5155 92.4278 74.6209C92.8538 73.7405 93.4218 73.2151 95.6938 73.5985H95.708Z" fill="#F6F6F1"/>
<path fill-rule="evenodd" clip-rule="evenodd" d="M93.6632 74.3369C93.436 74.4221 93.294 74.5783 93.1236 74.9475C92.797 75.6007 92.8822 76.3959 93.01 77.4183C93.0952 77.9863 93.1804 78.2845 93.3508 78.4407C93.4928 78.5543 93.72 78.6395 94.1602 78.6963L94.3022 78.7247C96.2902 79.0371 97.0428 79.1507 99.0734 79.0655C99.3006 79.0655 99.5136 79.1365 99.6698 79.3069C99.8118 79.4773 99.897 79.6903 99.8686 79.9175C99.755 80.8547 99.6982 82.0049 99.6272 83.2545V83.4675C99.5562 84.8023 99.4852 86.2081 99.3148 87.5287C99.2965 87.6317 99.3167 87.7379 99.3716 87.8269C99.4284 87.9121 99.542 88.0257 99.755 88.1109C101.043 88.5217 102.434 88.4715 103.688 87.9689C104.285 87.7133 104.398 87.4577 104.398 87.4009C104.498 86.4353 104.597 85.1005 104.697 83.7089V83.5527L105.023 79.6619C105.046 79.4856 105.129 79.3227 105.259 79.201C105.388 79.0792 105.556 79.0063 105.733 78.9945L109.17 78.7673C110.428 78.672 111.687 78.5821 112.947 78.4975L112.975 78.4407C113.153 78.1508 113.296 77.841 113.401 77.5177C113.543 76.8787 113.572 76.6373 113.572 76.4243C113.547 76.1276 113.5 75.8332 113.43 75.5439L113.401 75.2883C113.344 75.0185 113.259 74.7913 113.188 74.6209C113.149 74.5403 113.102 74.4641 113.046 74.3937L113.004 74.3795C110.872 74.3461 108.74 74.403 106.614 74.5499L104.484 74.6635C101.757 74.8055 98.903 74.8197 95.5802 74.3511C94.4726 74.1665 93.933 74.2233 93.6632 74.3369V74.3369ZM95.8216 72.8459C94.9172 72.6257 93.97 72.6551 93.081 72.9311C92.3426 73.2293 91.9876 73.7831 91.732 74.2943C91.3258 75.349 91.2418 76.5005 91.4906 77.6029V77.6597C91.5758 78.1567 91.6894 78.9945 92.3142 79.5483C92.8254 80.0169 93.507 80.1305 93.933 80.2015L94.0466 80.2157C95.7932 80.4997 96.6878 80.6417 98.264 80.5991C98.193 81.3943 98.1504 82.2747 98.1078 83.1551L98.0936 83.3965C98.0226 84.7313 97.9516 86.0945 97.7954 87.3299C97.7244 87.8269 97.838 88.2813 98.0936 88.6789C98.3492 89.0481 98.7042 89.3037 99.0876 89.4883C100.788 90.0838 102.648 90.0332 104.313 89.3463C105.023 89.0481 105.833 88.4659 105.932 87.5429L106.216 83.8509L106.23 83.6663L106.486 80.4571L109.269 80.2867L112.691 80.0595H112.734C113.162 80.05 113.578 79.9115 113.927 79.6619C114.097 79.5199 114.211 79.3353 114.296 79.2075C114.798 78.3587 115.077 77.3961 115.105 76.4101C115.086 75.9408 115.019 75.4745 114.906 75.0185C114.84 74.6547 114.725 74.3014 114.566 73.9677C114.424 73.6837 114.267 73.4281 114.054 73.2577V73.2435C113.835 73.0588 113.57 72.9362 113.288 72.8885C113.075 72.8459 112.862 72.8459 112.734 72.8459H112.705C110.519 72.8033 108.488 72.9169 106.486 73.0305L104.413 73.1441C101.729 73.2861 98.9882 73.3003 95.8216 72.8601V72.8459Z" fill="#1C1C1C"/>
<path d="M65.3768 50.5803C65.3768 60.7901 56.5302 70.9999 46.718 69.0545C36.92 67.1091 28.0734 60.7901 28.0734 50.5945C28.0734 40.3705 32.66 34.0515 46.718 32.1061C60.7902 30.1607 65.3768 40.3847 65.3768 50.5803Z" fill="#F6F6F1"/>
<path fill-rule="evenodd" clip-rule="evenodd" d="M60.7192 37.2608C58.0212 33.9238 53.6334 31.9216 46.8316 32.8588C39.8736 33.8244 35.4148 35.8408 32.6884 38.766C29.962 41.677 28.8402 45.582 28.8402 50.5804C28.8402 60.2506 37.2182 66.3992 46.8742 68.3162C51.4608 69.225 55.8628 67.308 59.1714 63.8574C62.5903 60.2737 64.5323 55.5327 64.61 50.5804C64.61 45.5678 63.474 40.6688 60.7192 37.2608V37.2608ZM61.912 36.3094C64.9792 40.0866 66.1294 45.3974 66.1294 50.5804C66.1294 55.8912 63.8432 61.1736 60.279 64.894C56.729 68.6144 51.8016 70.8438 46.576 69.8072C36.6076 67.8192 27.3066 61.3156 27.3066 50.5804C27.3066 45.369 28.4852 41.0238 31.5666 37.7294C34.6338 34.4634 39.4902 32.3334 46.6186 31.3536C53.8606 30.3596 58.8306 32.4896 61.912 36.3236V36.3094Z" fill="#1C1C1C"/>
<path d="M61.6706 57.3254C64.0846 50.836 61.3298 35.4432 57.1834 39.547L48.564 68.2737C48.9048 68.5009 53.0228 67.5495 54.7694 66.5697C57.1834 65.1923 60.5772 60.2791 61.6706 57.3397V57.3254Z" fill="#0CA49B"/>
<path d="M49.7142 76.5806V65.7034L42.0604 71L43.0544 77.248C43.5088 77.3758 44.5312 77.5888 46.3914 77.5888C48.2516 77.5888 49.3734 76.9356 49.7142 76.5948V76.5806Z" fill="#F6DE05"/>
<path fill-rule="evenodd" clip-rule="evenodd" d="M50.481 64.2549V76.8929L50.2538 77.1201C49.7568 77.6171 48.4078 78.3271 46.3914 78.3271C44.4602 78.3271 43.381 78.0999 42.884 77.9863L42.387 77.8585L41.2368 70.6307L50.481 64.2549V64.2549ZM42.8982 71.3407L43.7502 76.6089C44.2614 76.7083 45.1134 76.8219 46.3914 76.8219C47.2827 76.8514 48.1656 76.6405 48.9474 76.2113V67.1659L42.8982 71.3407V71.3407Z" fill="#1C1C1C"/>
<path d="M59.4838 49.6149C59.4838 60.3501 47.428 72.0509 37.133 72.0509C26.838 72.0509 22.1804 60.3501 22.1804 49.6149C22.1804 38.8655 29.8768 30.1609 40.186 30.1609C50.481 30.1609 58.8306 36.3237 59.4838 49.6149Z" fill="#1C1C1C"/>
<path d="M55.4652 51.7447C54.599 64.2407 45.3832 74.1239 32.3476 72.9027C19.312 71.6957 12.7516 60.5203 12.0416 48.7769C11.3316 37.0335 22.862 25.2049 35.5852 26.3409C48.2942 27.4769 56.3172 39.2345 55.4652 51.7447Z" fill="#F6F6F1"/>
<path fill-rule="evenodd" clip-rule="evenodd" d="M19.3262 33.2848C15.0662 37.4312 12.496 43.1254 12.8368 48.7344C13.5468 60.2932 19.9368 71 32.447 72.1644C44.9572 73.343 53.889 63.8858 54.7126 51.7164C55.5504 39.5328 47.712 28.2154 35.5142 27.1078C29.4082 26.5682 23.5862 29.1242 19.3262 33.2848V33.2848ZM18.247 32.2056C22.7626 27.8036 29.039 25.0062 35.6562 25.6026C48.8622 26.7954 57.1266 39.0074 56.2462 51.8158C55.3516 64.6526 45.866 74.9618 32.305 73.6838C18.744 72.4058 12.0274 60.7618 11.3032 48.8338C10.934 42.6994 13.7456 36.6076 18.2612 32.2056H18.247Z" fill="#1C1C1C"/>
<path d="M52.256 51.7447C51.404 64.2407 42.174 74.1239 29.1526 72.9027C16.117 71.6957 9.55659 60.5203 8.84659 48.7769C8.13659 37.0335 19.667 25.2049 32.376 26.3409C45.085 27.4769 53.1222 39.2345 52.256 51.7447Z" fill="#F6F6F1"/>
<path d="M26.838 64.8798C44.2614 60.7334 39.9446 43.6792 46.86 37.8572C49.0468 41.2794 52.0288 50.8502 46.86 61.7984C39.76 76.7794 22.01 69.3244 21.3 68.6428C20.6184 67.947 20.2776 66.4418 26.838 64.8798Z" fill="#0CA49B"/>
<path fill-rule="evenodd" clip-rule="evenodd" d="M16.3442 33.2848C12.0842 37.4312 9.51399 43.1254 9.85479 48.7344C10.5648 60.2932 16.9548 71 29.465 72.1644C41.9752 73.343 50.907 63.8858 51.7306 51.7164C52.5826 39.5328 44.73 28.2154 32.5322 27.1078C26.4262 26.5682 20.6042 29.1242 16.3442 33.2848V33.2848ZM15.265 32.2056C19.7806 27.8036 26.057 25.0062 32.6742 25.6026C45.8802 26.7954 54.1446 39.0074 53.2642 51.8158C52.3696 64.6526 42.884 74.9618 29.323 73.6838C15.762 72.4058 9.04539 60.7618 8.32119 48.8338C7.95199 42.6994 10.7636 36.6076 15.2792 32.2056H15.265Z" fill="#1C1C1C"/>
<path fill-rule="evenodd" clip-rule="evenodd" d="M26.9658 33.8243C27.264 34.1083 27.2924 34.5911 26.9942 34.8893C24.9084 37.2785 23.0541 39.8603 21.4562 42.5999L20.8598 43.5371C20.2634 44.5027 19.6954 45.4257 19.1558 46.2351C18.4742 47.2859 17.8068 48.2231 17.1678 48.8479C16.8696 49.1461 16.3868 49.1461 16.0886 48.8479C16.0186 48.778 15.9631 48.695 15.9252 48.6036C15.8873 48.5122 15.8678 48.4143 15.8678 48.3154C15.8678 48.2165 15.8873 48.1185 15.9252 48.0272C15.9631 47.9358 16.0186 47.8528 16.0886 47.7829C16.5998 47.2717 17.1962 46.4623 17.892 45.3973C18.4032 44.6163 18.957 43.7217 19.5534 42.7561L20.1498 41.8047C21.8005 38.9783 23.7167 36.3156 25.8724 33.8527C26.1564 33.5545 26.6534 33.5403 26.9658 33.8243V33.8243ZM28.5988 39.3339C28.897 39.6179 28.9254 40.1007 28.6272 40.3989C26.5414 42.7881 24.687 45.3698 23.0892 48.1095L22.507 49.0467L20.803 51.7447C20.093 52.7955 19.4398 53.7327 18.8008 54.3575C18.5026 54.6557 18.0198 54.6557 17.7216 54.3575C17.6516 54.2876 17.5961 54.2046 17.5582 54.1132C17.5203 54.0218 17.5008 53.9239 17.5008 53.825C17.5008 53.7261 17.5203 53.6281 17.5582 53.5368C17.5961 53.4454 17.6516 53.3624 17.7216 53.2925C18.2328 52.7813 18.8292 51.9719 19.525 50.9069C20.0362 50.1259 20.59 49.2313 21.1864 48.2657C21.3852 47.9533 21.5698 47.6267 21.7828 47.3143C23.4334 44.4879 25.3496 41.8251 27.5054 39.3623C27.7894 39.0641 28.2864 39.0499 28.5988 39.3339V39.3339Z" fill="#1C1C1C"/>
</g>
<defs>
<clipPath id="clip0_102_190">
<rect width="142" height="142" fill="white"/>
</clipPath>
</defs>
</svg>
