<svg width="157" height="32" viewBox="0 0 157 32" fill="none" xmlns="http://www.w3.org/2000/svg">
<path fill-rule="evenodd" clip-rule="evenodd" d="M5.43351 0.349132C3.51882 0.736619 1.46863 1.45253 0.471236 2.08163C0.0582531 2.34235 0.0178282 2.62334 0.1406 4.37374C0.332417 7.11222 0.230132 10.2715 0.126075 13.4856C-0.107097 20.6876 -0.349163 28.1644 2.68911 31.7964C2.76722 31.8901 3.36062 31.7212 4.00766 31.4217C4.19019 31.3372 4.36852 31.2565 4.54339 31.1794C4.8124 31.2861 5.07361 31.3814 5.32012 31.4614C7.54848 32.1851 13.5745 32.1779 15.5511 31.4495C16.8099 30.9856 17.7542 30.6424 18.5399 30.3886C19.3255 30.6424 20.2698 30.9856 21.5286 31.4495C23.5052 32.1779 29.5312 32.1851 31.7596 31.4614C32.0061 31.3814 32.2673 31.2861 32.5363 31.1794C32.7112 31.2565 32.8895 31.3372 33.072 31.4217C33.7191 31.7212 34.3125 31.8901 34.3906 31.7964C37.1952 28.4437 37.0345 20.1504 36.8913 12.7561C36.8313 9.66194 36.7744 6.72518 36.9391 4.37374C37.0619 2.62334 37.0215 2.34235 36.6085 2.08163C35.6111 1.45253 33.5609 0.736619 31.6462 0.349132C28.3336 -0.321436 23.7658 -0.00822496 20.1675 1.13544C19.6459 1.30135 19.0867 1.47885 18.5399 1.65213C17.993 1.47885 17.4338 1.30135 16.9122 1.13544C13.3139 -0.00822496 8.74611 -0.321436 5.43351 0.349132ZM10 14.024L10.36 8H25.912L26.272 14.024H25.288C23.536 10.256 22.888 8.984 21.28 8.984H20.488V22.328C20.488 23.576 20.896 23.672 22.456 23.84V24.848H13.816V23.84C15.376 23.672 15.784 23.576 15.784 22.328V8.984H14.992C13.384 8.984 12.736 10.256 10.984 14.024H10Z" fill="#034A46"/>
<path d="M45.3916 8.04288L45 14.1211H45.94C47.7154 10.2623 48.3943 9.00126 50.2742 9.00126H51.4231V23.1501C51.4231 24.512 50.9009 24.5876 49.1515 24.7894V25.7478H58.1072V24.7894C56.3578 24.5876 55.8618 24.512 55.8618 23.1501V9.00126H56.9845C58.8644 9.00126 59.5433 10.2623 61.3187 14.1211H62.2587L61.8671 8.04288H45.3916Z" fill="#353535"/>
<path d="M68.9257 12.0277C65.2442 12.0277 62.2155 14.9281 62.2155 19.3417C62.2155 23.4023 64.9309 26 68.743 26C71.9023 26 73.8605 24.2346 74.5394 21.5864L74.0955 21.3342C73.1294 22.6204 71.9284 23.2762 70.179 23.2762C67.7247 23.2762 65.9231 21.309 66.0014 18.005H74.4349V17.425C74.4349 14.2976 72.555 12.0277 68.9257 12.0277ZM68.6385 13.0113C70.179 13.0113 70.7534 14.575 70.7534 16.971H66.0536C66.2103 14.6507 67.0458 13.0113 68.6385 13.0113Z" fill="#353535"/>
<path d="M81.0887 6H80.4098L75.3967 7.18537V7.81589L76.9111 8.57251V23.8058C76.9111 24.6381 76.4933 24.7642 75.3445 24.8398V25.7478H82.6553V24.8398C81.5065 24.7642 81.0887 24.6381 81.0887 23.8058V6Z" fill="#353535"/>
<path d="M90.3441 12.0277C86.6626 12.0277 83.6338 14.9281 83.6338 19.3417C83.6338 23.4023 86.3492 26 90.1613 26C93.3206 26 95.2789 24.2346 95.9577 21.5864L95.5138 21.3342C94.5478 22.6204 93.3467 23.2762 91.5973 23.2762C89.143 23.2762 87.3414 21.309 87.4197 18.005H95.8533V17.425C95.8533 14.2976 93.9734 12.0277 90.3441 12.0277ZM90.0569 13.0113C91.5973 13.0113 92.1718 14.575 92.1718 16.971H87.472C87.6286 14.6507 88.4641 13.0113 90.0569 13.0113Z" fill="#353535"/>
<path d="M111.399 7.79067C106.098 7.79067 101.869 11.4729 101.869 17.3493C101.869 22.6204 105.472 26 111.294 26C113.801 26 115.968 25.4199 117.508 24.4111L117.926 19.5435H116.725C115.759 23.3014 114.088 24.7894 111.764 24.7894C108.396 24.7894 106.568 21.2837 106.568 16.6431C106.568 12.3556 108.083 8.95082 111.529 8.95082C114.01 8.95082 115.498 10.5397 116.125 13.4905H117.247L117.195 9.27869C115.707 8.3203 113.749 7.79067 111.399 7.79067Z" fill="#353535"/>
<path d="M125.334 23.7554C123.976 23.7554 123.402 22.8222 123.402 21.5107C123.402 20.0731 124.055 19.5687 125.073 19.1652L126.927 18.459V23.1501C126.352 23.5284 125.934 23.7554 125.334 23.7554ZM131.078 16.29C131.078 13.1627 129.068 12.0277 125.595 12.0277C122.566 12.0277 120.216 13.087 120.216 15.2812C120.216 16.1387 120.712 16.7188 121.444 16.9458L123.95 16.6179C123.793 16.0378 123.715 15.5082 123.715 14.9786C123.715 13.768 124.185 12.9105 125.308 12.9105C126.509 12.9105 126.927 13.8184 126.927 15.1299V17.4754L122.88 18.8625C120.974 19.5435 119.381 20.4262 119.381 22.6204C119.381 24.7137 120.843 25.9496 123.01 25.9496C124.89 25.9496 126.196 24.8903 127.005 23.831C127.344 25.1929 128.337 26 129.799 26C131.156 26 132.201 25.4956 132.984 24.6381L132.827 24.0328C132.592 24.1337 132.253 24.2346 131.861 24.2346C131.209 24.2346 131.078 23.7049 131.078 22.9735V16.29Z" fill="#353535"/>
<path d="M139.227 16.6936C140.48 15.6091 141.838 15.5334 143.483 15.5334H144.031V12.4565C143.796 12.2043 143.378 12.0277 142.804 12.0277C141.211 12.0277 140.375 12.9861 139.227 15.8361L139.331 12.0277H138.548L133.509 13.4401V14.0202L135.023 14.9029V23.8058C135.023 24.6381 134.605 24.7642 133.482 24.8398V25.7478H141.368V24.8398C139.801 24.6885 139.227 24.5624 139.227 23.5032V16.6936Z" fill="#353535"/>
<path d="M151.386 12.0277C147.705 12.0277 144.676 14.9281 144.676 19.3417C144.676 23.4023 147.392 26 151.204 26C154.363 26 156.321 24.2346 157 21.5864L156.556 21.3342C155.59 22.6204 154.389 23.2762 152.64 23.2762C150.185 23.2762 148.384 21.309 148.462 18.005H156.896V17.425C156.896 14.2976 155.016 12.0277 151.386 12.0277ZM151.099 13.0113C152.64 13.0113 153.214 14.575 153.214 16.971H148.514C148.671 14.6507 149.506 13.0113 151.099 13.0113Z" fill="#353535"/>
</svg>
