<svg width="150" height="44" viewBox="0 0 150 44" fill="none" xmlns="http://www.w3.org/2000/svg">
<g clip-path="url(#clip0_139_54)">
<path fill-rule="evenodd" clip-rule="evenodd" d="M144.307 44H6.24466C3.19977 44 0.719971 41.5202 0.719971 38.5V5.5C0.719971 2.46883 3.19977 0 6.24466 0H144.307C147.349 0 149.832 2.46883 149.832 5.5V38.5C149.832 41.5202 147.349 44 144.307 44Z" fill="black"/>
<path fill-rule="evenodd" clip-rule="evenodd" d="M144.307 0.880549C146.861 0.880549 148.951 2.95711 148.951 5.5V38.5C148.951 41.0429 146.875 43.1194 144.307 43.1194H6.24466C3.69079 43.1194 1.60052 41.0429 1.60052 38.5V5.5C1.60052 2.95711 3.67708 0.880549 6.24466 0.880549H144.307ZM144.307 0H6.24466C3.19977 0 0.719971 2.4798 0.719971 5.5V38.5C0.719971 41.5312 3.19977 44 6.24466 44H144.307C147.349 44 149.832 41.5312 149.832 38.5V5.5C149.832 2.4798 147.349 0 144.307 0Z" fill="#A6A6A6"/>
<path d="M79.2726 14.5554C78.2769 14.5554 77.4374 14.207 76.7736 13.5212C76.1153 12.8546 75.7477 11.9356 75.7641 10.9975C75.7641 9.99625 76.1043 9.14862 76.7736 8.47655C77.4347 7.79076 78.2741 7.44238 79.2699 7.44238C80.2547 7.44238 81.0941 7.79076 81.7689 8.47655C82.4382 9.17056 82.7783 10.0182 82.7783 10.9975C82.7674 12.0015 82.4272 12.8491 81.7689 13.5184C81.1078 14.2097 80.2684 14.5554 79.2726 14.5554ZM49.6439 14.5554C48.6701 14.5554 47.8252 14.2125 47.134 13.5349C46.4482 12.8601 46.0998 12.007 46.0998 11.0002C46.0998 9.99351 46.4482 9.14039 47.134 8.46558C47.8115 7.78802 48.6564 7.44513 49.6439 7.44513C50.1267 7.44513 50.5958 7.54114 51.0457 7.7359C51.4873 7.92518 51.8467 8.18303 52.1128 8.49849L52.1786 8.57804L51.4352 9.30772L51.3584 9.2172C50.9387 8.71794 50.3763 8.4738 49.633 8.4738C48.9691 8.4738 48.3903 8.70971 47.913 9.17605C47.433 9.64513 47.1888 10.2596 47.1888 11.003C47.1888 11.7464 47.433 12.3608 47.913 12.8299C48.3903 13.2962 48.9691 13.5322 49.633 13.5322C50.3407 13.5322 50.936 13.2962 51.3995 12.8299C51.6739 12.5556 51.8439 12.1716 51.9043 11.686H49.5205V10.6601H52.9275L52.9412 10.7534C52.9659 10.9262 52.9906 11.1045 52.9906 11.2691C52.9906 12.2155 52.7053 12.9808 52.1402 13.5459C51.4983 14.2152 50.6589 14.5554 49.6439 14.5554ZM89.0382 14.41H87.9876L84.7699 9.26109L84.7973 10.1883V14.4072H83.7467V7.59051H84.9454L84.9783 7.64263L88.004 12.4925L87.9766 11.5681V7.59051H89.0382V14.41ZM71.3778 14.41H70.3135V8.61645H68.4674V7.59051H73.2212V8.61645H71.3751V14.41H71.3778ZM67.6005 14.41H66.5389V7.59051H67.6005V14.41ZM61.6342 14.41H60.5726V8.61645H58.7265V7.59051H63.4803V8.61645H61.6342V14.41ZM58.0544 14.399H53.9836V7.59051H58.0544V8.61645H55.0479V10.4873H57.7609V11.5022H55.0479V13.3731H58.0544V14.399ZM77.5527 12.8162C78.0272 13.2908 78.6033 13.5294 79.2726 13.5294C79.9611 13.5294 80.5235 13.2962 80.9926 12.8162C81.4589 12.3499 81.6948 11.7381 81.6948 11.0002C81.6948 10.2623 81.4589 9.64787 80.9953 9.18428C80.5207 8.70971 79.9419 8.47106 79.2754 8.47106C78.5868 8.47106 78.0245 8.70423 77.5581 9.18428C77.0918 9.65061 76.8559 10.2623 76.8559 11.0002C76.8559 11.7381 77.0891 12.3526 77.5527 12.8162Z" fill="white"/>
<path fill-rule="evenodd" clip-rule="evenodd" d="M75.6654 23.9314C73.0731 23.9314 70.9719 25.8982 70.9719 28.6112C70.9719 31.2994 73.0868 33.291 75.6654 33.291C78.2576 33.291 80.3589 31.3104 80.3589 28.6112C80.3589 25.8982 78.2576 23.9314 75.6654 23.9314ZM75.6654 31.4366C74.2472 31.4366 73.0265 30.2625 73.0265 28.6002C73.0265 26.9131 74.2499 25.7638 75.6654 25.7638C77.0836 25.7638 78.3043 26.9131 78.3043 28.6002C78.307 30.2735 77.0836 31.4366 75.6654 31.4366ZM65.4252 23.9314C62.8329 23.9314 60.7317 25.8982 60.7317 28.6112C60.7317 31.2994 62.8467 33.291 65.4252 33.291C68.0175 33.291 70.1187 31.3104 70.1187 28.6112C70.1187 25.8982 68.0147 23.9314 65.4252 23.9314ZM65.4252 31.4366C64.007 31.4366 62.7863 30.2625 62.7863 28.6002C62.7863 26.9131 64.0098 25.7638 65.4252 25.7638C66.8434 25.7638 68.0641 26.9131 68.0641 28.6002C68.0641 30.2735 66.8434 31.4366 65.4252 31.4366ZM53.2402 25.3605V27.3411H57.994C57.8487 28.452 57.4811 29.2722 56.9187 29.8346C56.222 30.5314 55.1467 31.2885 53.2512 31.2885C50.3297 31.2885 48.0447 28.9294 48.0447 26.0079C48.0447 23.0865 50.3297 20.7274 53.2512 20.7274C54.8285 20.7274 55.9778 21.3501 56.831 22.1456L58.2354 20.7411C57.0504 19.6054 55.4731 18.7358 53.2621 18.7358C49.2544 18.7358 45.8913 22.0002 45.8913 25.9969C45.8913 30.0047 49.2516 33.258 53.2621 33.258C55.4265 33.258 57.0504 32.5503 58.3342 31.2171C59.6427 29.9087 60.0569 28.0625 60.0569 26.573C60.0569 26.1094 60.0212 25.6924 59.9472 25.3386H53.2374C53.2402 25.3358 53.2402 25.3605 53.2402 25.3605ZM103.08 26.9022C102.688 25.8516 101.503 23.9204 99.0726 23.9204C96.6641 23.9204 94.6616 25.8159 94.6616 28.6002C94.6616 31.2281 96.6422 33.28 99.3058 33.28C101.445 33.28 102.691 31.9715 103.204 31.2034L101.616 30.1391C101.089 30.9209 100.356 31.4338 99.3167 31.4338C98.2661 31.4338 97.531 30.9565 97.0427 30.0156L103.3 27.4234C103.3 27.4261 103.08 26.9022 103.08 26.9022ZM96.6998 28.4658C96.6504 26.658 98.1043 25.7391 99.1439 25.7391C99.9641 25.7391 100.647 26.1423 100.88 26.7294L96.6998 28.4658ZM91.6167 33.0002H93.6714V19.2516H91.6167V33.0002ZM88.2427 24.971H88.1686C87.705 24.4196 86.8245 23.9204 85.6998 23.9204C83.3654 23.9204 81.2147 25.975 81.2147 28.6139C81.2147 31.2418 83.3544 33.2718 85.6998 33.2718C86.8108 33.2718 87.705 32.7698 88.1686 32.2074H88.2427V32.8795C88.2427 34.6653 87.2881 35.6281 85.7492 35.6281C84.4901 35.6281 83.7083 34.7229 83.3901 33.9658L81.6043 34.7119C82.1172 35.9463 83.4861 37.4742 85.7464 37.4742C88.1549 37.4742 90.1958 36.056 90.1958 32.5969V24.2002H88.2537V24.971C88.2564 24.971 88.2427 24.971 88.2427 24.971ZM85.8836 31.4366C84.4654 31.4366 83.2803 30.2515 83.2803 28.6139C83.2803 26.9625 84.4654 25.7665 85.8836 25.7665C87.2881 25.7665 88.3771 26.9762 88.3771 28.6139C88.3908 30.2515 87.2908 31.4366 85.8836 31.4366ZM112.701 19.2516H107.788V33.0002H109.842V27.7937H112.703C114.977 27.7937 117.213 26.1451 117.213 23.5281C117.213 20.9112 114.986 19.2516 112.701 19.2516ZM112.761 25.8735H109.839V21.1553H112.761C114.3 21.1553 115.169 22.4254 115.169 23.5144C115.169 24.5924 114.289 25.8735 112.761 25.8735ZM125.448 23.9067C123.956 23.9067 122.417 24.5678 121.78 26.0079L123.602 26.765C123.994 26.0079 124.713 25.7501 125.473 25.7501C126.537 25.7501 127.612 26.3865 127.637 27.5221V27.6675C127.269 27.459 126.463 27.1408 125.497 27.1408C123.53 27.1408 121.536 28.2161 121.536 30.2323C121.536 32.0785 123.149 33.2635 124.946 33.2635C126.326 33.2635 127.086 32.6408 127.56 31.9194H127.634V32.9837H129.615V27.7169C129.615 25.2645 127.793 23.9067 125.448 23.9067ZM125.19 31.4366C124.518 31.4366 123.577 31.1074 123.577 30.2625C123.577 29.1982 124.751 28.7949 125.752 28.7949C126.658 28.7949 127.086 28.9897 127.623 29.2585C127.475 30.4929 126.433 31.4256 125.19 31.4366ZM136.84 24.2002L134.481 30.1638H134.407L131.963 24.2002H129.752L133.42 32.5366L131.329 37.1698H133.469L139.112 24.2002H136.84ZM118.346 33.0002H120.401V19.2516H118.346V33.0002Z" fill="white"/>
<path fill-rule="evenodd" clip-rule="evenodd" d="M12.1973 8.28696C11.8791 8.62985 11.6953 9.15379 11.6953 9.83957V34.163C11.6953 34.8488 11.8791 35.3727 12.2082 35.7019L12.2933 35.776L25.9212 22.1481V21.8436L12.2823 8.21289L12.1973 8.28696Z" fill="url(#paint0_linear_139_54)"/>
<path fill-rule="evenodd" clip-rule="evenodd" d="M30.4556 26.7044L25.9102 22.159V21.8408L30.4556 17.2954L30.5544 17.3558L35.9309 20.4116C37.4699 21.2785 37.4699 22.7104 35.9309 23.5882L30.5544 26.644L30.4556 26.7044Z" fill="url(#paint1_linear_139_54)"/>
<path fill-rule="evenodd" clip-rule="evenodd" d="M30.5544 26.6441L25.9102 22L12.1973 35.713C12.6993 36.2506 13.5414 36.311 14.4823 35.787L30.5544 26.6441Z" fill="url(#paint2_linear_139_54)"/>
<path fill-rule="evenodd" clip-rule="evenodd" d="M30.5544 17.3557L14.4823 8.22651C13.5414 7.68886 12.6965 7.76292 12.1973 8.30058L25.9102 21.9998L30.5544 17.3557Z" fill="url(#paint3_linear_139_54)"/>
<path opacity="0.2" fill-rule="evenodd" clip-rule="evenodd" d="M30.4556 26.5454L14.4933 35.6142C13.6018 36.1272 12.8063 36.0915 12.2933 35.6252L12.2083 35.7102L12.2933 35.7843C12.8063 36.2479 13.6018 36.2863 14.4933 35.7733L30.5654 26.6442L30.4556 26.5454Z" fill="black"/>
<path opacity="0.12" fill-rule="evenodd" clip-rule="evenodd" d="M35.931 23.4292L30.4419 26.5454L30.5407 26.6441L35.9172 23.5883C36.6881 23.1494 37.0666 22.5733 37.0666 22C37.02 22.5267 36.6277 23.0259 35.931 23.4292Z" fill="black"/>
<path opacity="0.25" fill-rule="evenodd" clip-rule="evenodd" d="M14.4823 8.38601L35.9309 20.571C36.6277 20.9633 37.02 21.4763 37.0803 22.0002C37.0803 21.4269 36.7018 20.8508 35.9309 20.4119L14.4823 8.22691C12.9434 7.34636 11.6953 8.08153 11.6953 9.83988V9.99898C11.6953 8.23788 12.9434 7.51644 14.4823 8.38601Z" fill="white"/>
</g>
<defs>
<linearGradient id="paint0_linear_139_54" x1="24.6988" y1="9.57715" x2="2.86922" y2="15.3937" gradientUnits="userSpaceOnUse">
<stop stop-color="#00A0FF"/>
<stop offset="0.00657" stop-color="#00A1FF"/>
<stop offset="0.2601" stop-color="#00BEFF"/>
<stop offset="0.5122" stop-color="#00D2FF"/>
<stop offset="0.7604" stop-color="#00DFFF"/>
<stop offset="1" stop-color="#00E3FF"/>
</linearGradient>
<linearGradient id="paint1_linear_139_54" x1="37.9378" y1="21.9999" x2="11.3213" y2="21.9999" gradientUnits="userSpaceOnUse">
<stop stop-color="#FFE000"/>
<stop offset="0.4087" stop-color="#FFBD00"/>
<stop offset="0.7754" stop-color="#FFA500"/>
<stop offset="1" stop-color="#FF9C00"/>
</linearGradient>
<linearGradient id="paint2_linear_139_54" x1="28.0291" y1="24.5271" x2="10.5044" y2="54.0226" gradientUnits="userSpaceOnUse">
<stop stop-color="#FF3A44"/>
<stop offset="1" stop-color="#C31162"/>
</linearGradient>
<linearGradient id="paint3_linear_139_54" x1="8.74419" y1="0.196501" x2="16.5627" y2="13.3697" gradientUnits="userSpaceOnUse">
<stop stop-color="#32A071"/>
<stop offset="0.0685" stop-color="#2DA771"/>
<stop offset="0.4762" stop-color="#15CF74"/>
<stop offset="0.8009" stop-color="#06E775"/>
<stop offset="1" stop-color="#00F076"/>
</linearGradient>
<clipPath id="clip0_139_54">
<rect width="149.112" height="44" fill="white" transform="translate(0.719971)"/>
</clipPath>
</defs>
</svg>
